<svg xmlns="http://www.w3.org/2000/svg" version="1.1" width="38.5in" height="13in" viewBox = " 0 0 3465 1170" >
<!-- Front--> 
<g transform="translate(22.5, 22.5) " > 
<polygon style="stroke:#000000; fill:none; stroke-width:0.9" points="0, 0 56.25, 0 56.25, 10.62 112.5, 10.62 112.5, 0 157.5, 0 157.5, 10.62 202.5, 10.62 202.5, 0 247.5, 0 247.5, 10.62 292.5, 10.62 292.5, 0 337.5, 0 337.5, 10.62 382.5, 10.62 382.5, 0 427.5, 0 427.5, 10.62 472.5, 10.62 472.5, 0 517.5, 0 517.5, 10.62 562.5, 10.62 562.5, 0 607.5, 0 607.5, 10.62 652.5, 10.62 652.5, 0 697.5, 0 697.5, 10.62 742.5, 10.62 742.5, 0 787.5, 0 787.5, 10.62 832.5, 10.62 832.5, 0 877.5, 0 877.5, 10.62 922.5, 10.62 922.5, 0 967.5, 0 967.5, 10.62 1012.5, 10.62 1012.5, 0 1057.5, 0 1057.5, 10.62 1102.5, 10.62 1102.5, 0 1147.5, 0 1147.5, 10.62 1203.75, 10.62 1203.75, 0 1260, 0 1260, 45 1249.38, 45 1249.38, 90 1260, 90 1260, 135 1249.38, 135 1249.38, 180 1260, 180 1260, 225 1203.75, 225 1203.75, 214.38 1147.5, 214.38 1147.5, 225 1102.5, 225 1102.5, 214.38 1057.5, 214.38 1057.5, 225 1012.5, 225 1012.5, 214.38 967.5, 214.38 967.5, 225 922.5, 225 922.5, 214.38 877.5, 214.38 877.5, 225 832.5, 225 832.5, 214.38 787.5, 214.38 787.5, 225 742.5, 225 742.5, 214.38 697.5, 214.38 697.5, 225 652.5, 225 652.5, 214.38 607.5, 214.38 607.5, 225 562.5, 225 562.5, 214.38 517.5, 214.38 517.5, 225 472.5, 225 472.5, 214.38 427.5, 214.38 427.5, 225 382.5, 225 382.5, 214.38 337.5, 214.38 337.5, 225 292.5, 225 292.5, 214.38 247.5, 214.38 247.5, 225 202.5, 225 202.5, 214.38 157.5, 214.38 157.5, 225 112.5, 225 112.5, 214.38 56.25, 214.38 56.25, 225 0, 225 0, 180 10.62, 180 10.62, 135 0, 135 0, 90 10.62, 90 10.62, 45 0, 45 "/> 
</g>
<!-- Back--> 
<g transform="translate(1282.5, 22.5) " > 
<polygon style="stroke:#000000; fill:none; stroke-width:0.9" points="0, 0 56.25, 0 56.25, 10.62 112.5, 10.62 112.5, 0 157.5, 0 157.5, 10.62 202.5, 10.62 202.5, 0 247.5, 0 247.5, 10.62 292.5, 10.62 292.5, 0 337.5, 0 337.5, 10.62 382.5, 10.62 382.5, 0 427.5, 0 427.5, 10.62 472.5, 10.62 472.5, 0 517.5, 0 517.5, 10.62 562.5, 10.62 562.5, 0 607.5, 0 607.5, 10.62 652.5, 10.62 652.5, 0 697.5, 0 697.5, 10.62 742.5, 10.62 742.5, 0 787.5, 0 787.5, 10.62 832.5, 10.62 832.5, 0 877.5, 0 877.5, 10.62 922.5, 10.62 922.5, 0 967.5, 0 967.5, 10.62 1012.5, 10.62 1012.5, 0 1057.5, 0 1057.5, 10.62 1102.5, 10.62 1102.5, 0 1147.5, 0 1147.5, 10.62 1203.75, 10.62 1203.75, 0 1260, 0 1260, 45 1249.38, 45 1249.38, 90 1260, 90 1260, 135 1249.38, 135 1249.38, 180 1260, 180 1260, 225 1203.75, 225 1203.75, 214.38 1147.5, 214.38 1147.5, 225 1102.5, 225 1102.5, 214.38 1057.5, 214.38 1057.5, 225 1012.5, 225 1012.5, 214.38 967.5, 214.38 967.5, 225 922.5, 225 922.5, 214.38 877.5, 214.38 877.5, 225 832.5, 225 832.5, 214.38 787.5, 214.38 787.5, 225 742.5, 225 742.5, 214.38 697.5, 214.38 697.5, 225 652.5, 225 652.5, 214.38 607.5, 214.38 607.5, 225 562.5, 225 562.5, 214.38 517.5, 214.38 517.5, 225 472.5, 225 472.5, 214.38 427.5, 214.38 427.5, 225 382.5, 225 382.5, 214.38 337.5, 214.38 337.5, 225 292.5, 225 292.5, 214.38 247.5, 214.38 247.5, 225 202.5, 225 202.5, 214.38 157.5, 214.38 157.5, 225 112.5, 225 112.5, 214.38 56.25, 214.38 56.25, 225 0, 225 0, 180 10.62, 180 10.62, 135 0, 135 0, 90 10.62, 90 10.62, 45 0, 45 "/> 
</g>
<!-- Left--> 
<g transform="translate(2542.5, 22.5) " > 
<polygon style="stroke:#000000; fill:none; stroke-width:0.9" points="10.62, 0 56.25, 0 56.25, 10.62 112.5, 10.62 112.5, 0 157.5, 0 157.5, 10.62 202.5, 10.62 202.5, 0 247.5, 0 247.5, 10.62 292.5, 10.62 292.5, 0 337.5, 0 337.5, 10.62 382.5, 10.62 382.5, 0 427.5, 0 427.5, 10.62 472.5, 10.62 472.5, 0 517.5, 0 517.5, 10.62 562.5, 10.62 562.5, 0 607.5, 0 607.5, 10.62 652.5, 10.62 652.5, 0 697.5, 0 697.5, 10.62 742.5, 10.62 742.5, 0 787.5, 0 787.5, 10.62 843.75, 10.62 843.75, 0 889.38, 0 889.38, 45 900, 45 900, 90 889.38, 90 889.38, 135 900, 135 900, 180 889.38, 180 889.38, 225 843.75, 225 843.75, 214.38 787.5, 214.38 787.5, 225 742.5, 225 742.5, 214.38 697.5, 214.38 697.5, 225 652.5, 225 652.5, 214.38 607.5, 214.38 607.5, 225 562.5, 225 562.5, 214.38 517.5, 214.38 517.5, 225 472.5, 225 472.5, 214.38 427.5, 214.38 427.5, 225 382.5, 225 382.5, 214.38 337.5, 214.38 337.5, 225 292.5, 225 292.5, 214.38 247.5, 214.38 247.5, 225 202.5, 225 202.5, 214.38 157.5, 214.38 157.5, 225 112.5, 225 112.5, 214.38 56.25, 214.38 56.25, 225 10.62, 225 10.62, 180 0, 180 0, 135 10.62, 135 10.62, 90 0, 90 0, 45 10.62, 45 "/> 
</g>
<!-- Right--> 
<g transform="translate(2542.5, 247.5) " > 
<polygon style="stroke:#000000; fill:none; stroke-width:0.9" points="10.62, 0 56.25, 0 56.25, 10.62 112.5, 10.62 112.5, 0 157.5, 0 157.5, 10.62 202.5, 10.62 202.5, 0 247.5, 0 247.5, 10.62 292.5, 10.62 292.5, 0 337.5, 0 337.5, 10.62 382.5, 10.62 382.5, 0 427.5, 0 427.5, 10.62 472.5, 10.62 472.5, 0 517.5, 0 517.5, 10.62 562.5, 10.62 562.5, 0 607.5, 0 607.5, 10.62 652.5, 10.62 652.5, 0 697.5, 0 697.5, 10.62 742.5, 10.62 742.5, 0 787.5, 0 787.5, 10.62 843.75, 10.62 843.75, 0 889.38, 0 889.38, 45 900, 45 900, 90 889.38, 90 889.38, 135 900, 135 900, 180 889.38, 180 889.38, 225 843.75, 225 843.75, 214.38 787.5, 214.38 787.5, 225 742.5, 225 742.5, 214.38 697.5, 214.38 697.5, 225 652.5, 225 652.5, 214.38 607.5, 214.38 607.5, 225 562.5, 225 562.5, 214.38 517.5, 214.38 517.5, 225 472.5, 225 472.5, 214.38 427.5, 214.38 427.5, 225 382.5, 225 382.5, 214.38 337.5, 214.38 337.5, 225 292.5, 225 292.5, 214.38 247.5, 214.38 247.5, 225 202.5, 225 202.5, 214.38 157.5, 214.38 157.5, 225 112.5, 225 112.5, 214.38 56.25, 214.38 56.25, 225 10.62, 225 10.62, 180 0, 180 0, 135 10.62, 135 10.62, 90 0, 90 0, 45 10.62, 45 "/> 
</g>
<!-- Top--> 
<g transform="translate(22.5, 247.5) " > 
<polygon style="stroke:#000000; fill:none; stroke-width:0.9" points="10.62, 10.62 56.25, 10.62 56.25, 0 112.5, 0 112.5, 10.62 157.5, 10.62 157.5, 0 202.5, 0 202.5, 10.62 247.5, 10.62 247.5, 0 292.5, 0 292.5, 10.62 337.5, 10.62 337.5, 0 382.5, 0 382.5, 10.62 427.5, 10.62 427.5, 0 472.5, 0 472.5, 10.62 517.5, 10.62 517.5, 0 562.5, 0 562.5, 10.62 607.5, 10.62 607.5, 0 652.5, 0 652.5, 10.62 697.5, 10.62 697.5, 0 742.5, 0 742.5, 10.62 787.5, 10.62 787.5, 0 832.5, 0 832.5, 10.62 877.5, 10.62 877.5, 0 922.5, 0 922.5, 10.62 967.5, 10.62 967.5, 0 1012.5, 0 1012.5, 10.62 1057.5, 10.62 1057.5, 0 1102.5, 0 1102.5, 10.62 1147.5, 10.62 1147.5, 0 1203.75, 0 1203.75, 10.62 1249.38, 10.62 1249.38, 56.25 1260, 56.25 1260, 112.5 1249.38, 112.5 1249.38, 157.5 1260, 157.5 1260, 202.5 1249.38, 202.5 1249.38, 247.5 1260, 247.5 1260, 292.5 1249.38, 292.5 1249.38, 337.5 1260, 337.5 1260, 382.5 1249.38, 382.5 1249.38, 427.5 1260, 427.5 1260, 472.5 1249.38, 472.5 1249.38, 517.5 1260, 517.5 1260, 562.5 1249.38, 562.5 1249.38, 607.5 1260, 607.5 1260, 652.5 1249.38, 652.5 1249.38, 697.5 1260, 697.5 1260, 742.5 1249.38, 742.5 1249.38, 787.5 1260, 787.5 1260, 843.75 1249.38, 843.75 1249.38, 889.38 1203.75, 889.38 1203.75, 900 1147.5, 900 1147.5, 889.38 1102.5, 889.38 1102.5, 900 1057.5, 900 1057.5, 889.38 1012.5, 889.38 1012.5, 900 967.5, 900 967.5, 889.38 922.5, 889.38 922.5, 900 877.5, 900 877.5, 889.38 832.5, 889.38 832.5, 900 787.5, 900 787.5, 889.38 742.5, 889.38 742.5, 900 697.5, 900 697.5, 889.38 652.5, 889.38 652.5, 900 607.5, 900 607.5, 889.38 562.5, 889.38 562.5, 900 517.5, 900 517.5, 889.38 472.5, 889.38 472.5, 900 427.5, 900 427.5, 889.38 382.5, 889.38 382.5, 900 337.5, 900 337.5, 889.38 292.5, 889.38 292.5, 900 247.5, 900 247.5, 889.38 202.5, 889.38 202.5, 900 157.5, 900 157.5, 889.38 112.5, 889.38 112.5, 900 56.25, 900 56.25, 889.38 10.62, 889.38 10.62, 843.75 0, 843.75 0, 787.5 10.62, 787.5 10.62, 742.5 0, 742.5 0, 697.5 10.62, 697.5 10.62, 652.5 0, 652.5 0, 607.5 10.62, 607.5 10.62, 562.5 0, 562.5 0, 517.5 10.62, 517.5 10.62, 472.5 0, 472.5 0, 427.5 10.62, 427.5 10.62, 382.5 0, 382.5 0, 337.5 10.62, 337.5 10.62, 292.5 0, 292.5 0, 247.5 10.62, 247.5 10.62, 202.5 0, 202.5 0, 157.5 10.62, 157.5 10.62, 112.5 0, 112.5 0, 56.25 10.62, 56.25 "/> 
</g>
<!-- Bottom--> 
<g transform="translate(1282.5, 247.5) " > 
<polygon style="stroke:#000000; fill:none; stroke-width:0.9" points="10.62, 10.62 56.25, 10.62 56.25, 0 112.5, 0 112.5, 10.62 157.5, 10.62 157.5, 0 202.5, 0 202.5, 10.62 247.5, 10.62 247.5, 0 292.5, 0 292.5, 10.62 337.5, 10.62 337.5, 0 382.5, 0 382.5, 10.62 427.5, 10.62 427.5, 0 472.5, 0 472.5, 10.62 517.5, 10.62 517.5, 0 562.5, 0 562.5, 10.62 607.5, 10.62 607.5, 0 652.5, 0 652.5, 10.62 697.5, 10.62 697.5, 0 742.5, 0 742.5, 10.62 787.5, 10.62 787.5, 0 832.5, 0 832.5, 10.62 877.5, 10.62 877.5, 0 922.5, 0 922.5, 10.62 967.5, 10.62 967.5, 0 1012.5, 0 1012.5, 10.62 1057.5, 10.62 1057.5, 0 1102.5, 0 1102.5, 10.62 1147.5, 10.62 1147.5, 0 1203.75, 0 1203.75, 10.62 1249.38, 10.62 1249.38, 56.25 1260, 56.25 1260, 112.5 1249.38, 112.5 1249.38, 157.5 1260, 157.5 1260, 202.5 1249.38, 202.5 1249.38, 247.5 1260, 247.5 1260, 292.5 1249.38, 292.5 1249.38, 337.5 1260, 337.5 1260, 382.5 1249.38, 382.5 1249.38, 427.5 1260, 427.5 1260, 472.5 1249.38, 472.5 1249.38, 517.5 1260, 517.5 1260, 562.5 1249.38, 562.5 1249.38, 607.5 1260, 607.5 1260, 652.5 1249.38, 652.5 1249.38, 697.5 1260, 697.5 1260, 742.5 1249.38, 742.5 1249.38, 787.5 1260, 787.5 1260, 843.75 1249.38, 843.75 1249.38, 889.38 1203.75, 889.38 1203.75, 900 1147.5, 900 1147.5, 889.38 1102.5, 889.38 1102.5, 900 1057.5, 900 1057.5, 889.38 1012.5, 889.38 1012.5, 900 967.5, 900 967.5, 889.38 922.5, 889.38 922.5, 900 877.5, 900 877.5, 889.38 832.5, 889.38 832.5, 900 787.5, 900 787.5, 889.38 742.5, 889.38 742.5, 900 697.5, 900 697.5, 889.38 652.5, 889.38 652.5, 900 607.5, 900 607.5, 889.38 562.5, 889.38 562.5, 900 517.5, 900 517.5, 889.38 472.5, 889.38 472.5, 900 427.5, 900 427.5, 889.38 382.5, 889.38 382.5, 900 337.5, 900 337.5, 889.38 292.5, 889.38 292.5, 900 247.5, 900 247.5, 889.38 202.5, 889.38 202.5, 900 157.5, 900 157.5, 889.38 112.5, 889.38 112.5, 900 56.25, 900 56.25, 889.38 10.62, 889.38 10.62, 843.75 0, 843.75 0, 787.5 10.62, 787.5 10.62, 742.5 0, 742.5 0, 697.5 10.62, 697.5 10.62, 652.5 0, 652.5 0, 607.5 10.62, 607.5 10.62, 562.5 0, 562.5 0, 517.5 10.62, 517.5 10.62, 472.5 0, 472.5 0, 427.5 10.62, 427.5 10.62, 382.5 0, 382.5 0, 337.5 10.62, 337.5 10.62, 292.5 0, 292.5 0, 247.5 10.62, 247.5 10.62, 202.5 0, 202.5 0, 157.5 10.62, 157.5 10.62, 112.5 0, 112.5 0, 56.25 10.62, 56.25 "/> 
</g></svg>